<svg id="visual" viewBox="0 0 900 600" width="900" height="600" xmlns="http://www.w3.org/2000/svg" xmlns:xlink="http://www.w3.org/1999/xlink" version="1.1"><rect x="0" y="0" width="900" height="600" fill="#001220"></rect><path d="M0 430L21.5 417.7C43 405.3 86 380.7 128.8 367.2C171.7 353.7 214.3 351.3 257.2 359.8C300 368.3 343 387.7 385.8 400.2C428.7 412.7 471.3 418.3 514.2 413.8C557 409.3 600 394.7 642.8 398.8C685.7 403 728.3 426 771.2 429.8C814 433.7 857 418.3 878.5 410.7L900 403L900 601L878.5 601C857 601 814 601 771.2 601C728.3 601 685.7 601 642.8 601C600 601 557 601 514.2 601C471.3 601 428.7 601 385.8 601C343 601 300 601 257.2 601C214.3 601 171.7 601 128.8 601C86 601 43 601 21.5 601L0 601Z" fill="#7d69fa"></path><path d="M0 478L21.5 471.8C43 465.7 86 453.3 128.8 451.8C171.7 450.3 214.3 459.7 257.2 456C300 452.3 343 435.7 385.8 434C428.7 432.3 471.3 445.7 514.2 444.3C557 443 600 427 642.8 428.8C685.7 430.7 728.3 450.3 771.2 449C814 447.7 857 425.3 878.5 414.2L900 403L900 601L878.5 601C857 601 814 601 771.2 601C728.3 601 685.7 601 642.8 601C600 601 557 601 514.2 601C471.3 601 428.7 601 385.8 601C343 601 300 601 257.2 601C214.3 601 171.7 601 128.8 601C86 601 43 601 21.5 601L0 601Z" fill="#dd50c7"></path><path d="M0 508L21.5 508.3C43 508.7 86 509.3 128.8 501.2C171.7 493 214.3 476 257.2 470.7C300 465.3 343 471.7 385.8 476C428.7 480.3 471.3 482.7 514.2 485.2C557 487.7 600 490.3 642.8 488C685.7 485.7 728.3 478.3 771.2 471.3C814 464.3 857 457.7 878.5 454.3L900 451L900 601L878.5 601C857 601 814 601 771.2 601C728.3 601 685.7 601 642.8 601C600 601 557 601 514.2 601C471.3 601 428.7 601 385.8 601C343 601 300 601 257.2 601C214.3 601 171.7 601 128.8 601C86 601 43 601 21.5 601L0 601Z" fill="#ff548e"></path><path d="M0 505L21.5 506.5C43 508 86 511 128.8 513.5C171.7 516 214.3 518 257.2 515.8C300 513.7 343 507.3 385.8 511.2C428.7 515 471.3 529 514.2 529.2C557 529.3 600 515.7 642.8 513.5C685.7 511.3 728.3 520.7 771.2 525.5C814 530.3 857 530.7 878.5 530.8L900 531L900 601L878.5 601C857 601 814 601 771.2 601C728.3 601 685.7 601 642.8 601C600 601 557 601 514.2 601C471.3 601 428.7 601 385.8 601C343 601 300 601 257.2 601C214.3 601 171.7 601 128.8 601C86 601 43 601 21.5 601L0 601Z" fill="#ff7c5d"></path><path d="M0 564L21.5 564.3C43 564.7 86 565.3 128.8 561.2C171.7 557 214.3 548 257.2 543.7C300 539.3 343 539.7 385.8 545.2C428.7 550.7 471.3 561.3 514.2 562.7C557 564 600 556 642.8 555.3C685.7 554.7 728.3 561.3 771.2 564.5C814 567.7 857 567.3 878.5 567.2L900 567L900 601L878.5 601C857 601 814 601 771.2 601C728.3 601 685.7 601 642.8 601C600 601 557 601 514.2 601C471.3 601 428.7 601 385.8 601C343 601 300 601 257.2 601C214.3 601 171.7 601 128.8 601C86 601 43 601 21.5 601L0 601Z" fill="#fcaf3c"></path></svg>