<svg id="visual" viewBox="0 0 900 600" width="900" height="600" xmlns="http://www.w3.org/2000/svg" xmlns:xlink="http://www.w3.org/1999/xlink" version="1.1"><rect x="0" y="0" width="900" height="600" fill="#FFFFFF"></rect><path d="M0 471L5.5 448.8C11 426.7 22 382.3 33.2 376.2C44.3 370 55.7 402 66.8 396C78 390 89 346 100 349.5C111 353 122 404 133.2 429.7C144.3 455.3 155.7 455.7 166.8 452.3C178 449 189 442 200 442.2C211 442.3 222 449.7 233.2 438.2C244.3 426.7 255.7 396.3 266.8 371.3C278 346.3 289 326.7 300 345.8C311 365 322 423 333.2 445.5C344.3 468 355.7 455 366.8 434.7C378 414.3 389 386.7 400 388.2C411 389.7 422 420.3 433.2 414C444.3 407.7 455.7 364.3 466.8 365C478 365.7 489 410.3 500 428C511 445.7 522 436.3 533.2 426.5C544.3 416.7 555.7 406.3 566.8 401.2C578 396 589 396 600 409.7C611 423.3 622 450.7 633.2 439.7C644.3 428.7 655.7 379.3 666.8 368.3C678 357.3 689 384.7 700 403.8C711 423 722 434 733.2 416C744.3 398 755.7 351 766.8 343.3C778 335.7 789 367.3 800 381.5C811 395.7 822 392.3 833.2 379C844.3 365.7 855.7 342.3 866.8 328.3C878 314.3 889 309.7 894.5 307.3L900 305L900 601L894.5 601C889 601 878 601 866.8 601C855.7 601 844.3 601 833.2 601C822 601 811 601 800 601C789 601 778 601 766.8 601C755.7 601 744.3 601 733.2 601C722 601 711 601 700 601C689 601 678 601 666.8 601C655.7 601 644.3 601 633.2 601C622 601 611 601 600 601C589 601 578 601 566.8 601C555.7 601 544.3 601 533.2 601C522 601 511 601 500 601C489 601 478 601 466.8 601C455.7 601 444.3 601 433.2 601C422 601 411 601 400 601C389 601 378 601 366.8 601C355.7 601 344.3 601 333.2 601C322 601 311 601 300 601C289 601 278 601 266.8 601C255.7 601 244.3 601 233.2 601C222 601 211 601 200 601C189 601 178 601 166.8 601C155.7 601 144.3 601 133.2 601C122 601 111 601 100 601C89 601 78 601 66.8 601C55.7 601 44.3 601 33.2 601C22 601 11 601 5.5 601L0 601Z" fill="#0066FF" stroke-linecap="round" stroke-linejoin="miter"></path></svg>