<svg id="visual" viewBox="0 0 900 600" width="900" height="600" xmlns="http://www.w3.org/2000/svg" xmlns:xlink="http://www.w3.org/1999/xlink" version="1.1"><rect x="0" y="0" width="900" height="600" fill="#FFFFFF"></rect><path d="M0 534L5 534C10 534 20 534 30 521.5C40 509 50 484 60 478C70 472 80 485 90 497.3C100 509.7 110 521.3 120 536C130 550.7 140 568.3 150 573.3C160 578.3 170 570.7 180 563.7C190 556.7 200 550.3 210 528.3C220 506.3 230 468.7 240 452.2C250 435.7 260 440.3 270 459.8C280 479.3 290 513.7 300 528C310 542.3 320 536.7 330 533.3C340 530 350 529 360 520C370 511 380 494 390 505.7C400 517.3 410 557.7 420 562.2C430 566.7 440 535.3 450 515.7C460 496 470 488 480 474C490 460 500 440 510 450.5C520 461 530 502 540 506.3C550 510.7 560 478.3 570 478.3C580 478.3 590 510.7 600 521.8C610 533 620 523 630 526.7C640 530.3 650 547.7 660 549.7C670 551.7 680 538.3 690 532.7C700 527 710 529 720 536.5C730 544 740 557 750 558.3C760 559.7 770 549.3 780 536.3C790 523.3 800 507.7 810 495.2C820 482.7 830 473.3 840 466.5C850 459.7 860 455.3 870 475C880 494.7 890 538.3 895 560.2L900 582L900 601L895 601C890 601 880 601 870 601C860 601 850 601 840 601C830 601 820 601 810 601C800 601 790 601 780 601C770 601 760 601 750 601C740 601 730 601 720 601C710 601 700 601 690 601C680 601 670 601 660 601C650 601 640 601 630 601C620 601 610 601 600 601C590 601 580 601 570 601C560 601 550 601 540 601C530 601 520 601 510 601C500 601 490 601 480 601C470 601 460 601 450 601C440 601 430 601 420 601C410 601 400 601 390 601C380 601 370 601 360 601C350 601 340 601 330 601C320 601 310 601 300 601C290 601 280 601 270 601C260 601 250 601 240 601C230 601 220 601 210 601C200 601 190 601 180 601C170 601 160 601 150 601C140 601 130 601 120 601C110 601 100 601 90 601C80 601 70 601 60 601C50 601 40 601 30 601C20 601 10 601 5 601L0 601Z" fill="#FCAF3C" stroke-linecap="round" stroke-linejoin="miter"></path></svg>